<mxfile host="app.diagrams.net" agent="Mozilla/5.0 (Windows NT 10.0; Win64; x64) AppleWebKit/537.36 (KHTML, like Gecko) Chrome/132.0.0.0 Safari/537.36 OPR/117.0.0.0" version="26.2.14">
  <diagram name="Sayfa -1" id="htMOKaCBTCwlKZ45ToyJ">
    <mxGraphModel dx="1162" dy="1790" grid="1" gridSize="10" guides="1" tooltips="1" connect="1" arrows="1" fold="1" page="1" pageScale="1" pageWidth="827" pageHeight="1169" math="0" shadow="0">
      <root>
        <mxCell id="0" />
        <mxCell id="1" parent="0" />
        <mxCell id="7FUl8SxeNgQ8QP_qilQW-3" value="" style="shape=cube;whiteSpace=wrap;html=1;boundedLbl=1;backgroundOutline=1;darkOpacity=0.05;darkOpacity2=0.1;flipH=1;size=140;" vertex="1" parent="1">
          <mxGeometry x="60" y="30" width="160" height="430" as="geometry" />
        </mxCell>
        <mxCell id="7FUl8SxeNgQ8QP_qilQW-4" value="" style="shape=cube;whiteSpace=wrap;html=1;boundedLbl=1;backgroundOutline=1;darkOpacity=0.05;darkOpacity2=0.1;flipH=1;size=140;" vertex="1" parent="1">
          <mxGeometry x="90" y="30" width="160" height="430" as="geometry" />
        </mxCell>
        <mxCell id="7FUl8SxeNgQ8QP_qilQW-5" value="" style="shape=cube;whiteSpace=wrap;html=1;boundedLbl=1;backgroundOutline=1;darkOpacity=0.05;darkOpacity2=0.1;flipH=1;size=90;fillColor=light-dark(#E51400,#FF0000);strokeColor=#B20000;fontColor=#ffffff;" vertex="1" parent="1">
          <mxGeometry x="120" y="125" width="110" height="240" as="geometry" />
        </mxCell>
        <mxCell id="7FUl8SxeNgQ8QP_qilQW-6" value="" style="shape=cube;whiteSpace=wrap;html=1;boundedLbl=1;backgroundOutline=1;darkOpacity=0.05;darkOpacity2=0.1;flipH=1;size=90;" vertex="1" parent="1">
          <mxGeometry x="150" y="125" width="110" height="240" as="geometry" />
        </mxCell>
        <mxCell id="7FUl8SxeNgQ8QP_qilQW-7" value="" style="shape=cube;whiteSpace=wrap;html=1;boundedLbl=1;backgroundOutline=1;darkOpacity=0.05;darkOpacity2=0.1;flipH=1;size=90;" vertex="1" parent="1">
          <mxGeometry x="180" y="125" width="110" height="240" as="geometry" />
        </mxCell>
        <mxCell id="7FUl8SxeNgQ8QP_qilQW-8" value="" style="shape=cube;whiteSpace=wrap;html=1;boundedLbl=1;backgroundOutline=1;darkOpacity=0.05;darkOpacity2=0.1;flipH=1;size=50;fillColor=light-dark(#E51400,#CC0000);fontColor=#ffffff;strokeColor=#B20000;" vertex="1" parent="1">
          <mxGeometry x="220" y="170" width="70" height="150" as="geometry" />
        </mxCell>
        <mxCell id="7FUl8SxeNgQ8QP_qilQW-9" value="" style="shape=cube;whiteSpace=wrap;html=1;boundedLbl=1;backgroundOutline=1;darkOpacity=0.05;darkOpacity2=0.1;flipH=1;size=50;" vertex="1" parent="1">
          <mxGeometry x="250" y="170" width="70" height="150" as="geometry" />
        </mxCell>
        <mxCell id="7FUl8SxeNgQ8QP_qilQW-10" value="" style="shape=cube;whiteSpace=wrap;html=1;boundedLbl=1;backgroundOutline=1;darkOpacity=0.05;darkOpacity2=0.1;flipH=1;size=50;" vertex="1" parent="1">
          <mxGeometry x="280" y="170" width="70" height="150" as="geometry" />
        </mxCell>
        <mxCell id="7FUl8SxeNgQ8QP_qilQW-11" value="" style="shape=cube;whiteSpace=wrap;html=1;boundedLbl=1;backgroundOutline=1;darkOpacity=0.05;darkOpacity2=0.1;flipH=1;size=50;" vertex="1" parent="1">
          <mxGeometry x="310" y="170" width="70" height="150" as="geometry" />
        </mxCell>
        <mxCell id="7FUl8SxeNgQ8QP_qilQW-12" value="" style="shape=cube;whiteSpace=wrap;html=1;boundedLbl=1;backgroundOutline=1;darkOpacity=0.05;darkOpacity2=0.1;flipH=1;size=30;fillColor=light-dark(#E51400,#CC0000);fontColor=#ffffff;strokeColor=#B20000;" vertex="1" parent="1">
          <mxGeometry x="344" y="205" width="70" height="80" as="geometry" />
        </mxCell>
        <mxCell id="7FUl8SxeNgQ8QP_qilQW-13" value="" style="shape=cube;whiteSpace=wrap;html=1;boundedLbl=1;backgroundOutline=1;darkOpacity=0.05;darkOpacity2=0.1;flipH=1;size=30;" vertex="1" parent="1">
          <mxGeometry x="390" y="205" width="70" height="80" as="geometry" />
        </mxCell>
        <mxCell id="7FUl8SxeNgQ8QP_qilQW-14" value="" style="shape=cube;whiteSpace=wrap;html=1;boundedLbl=1;backgroundOutline=1;darkOpacity=0.05;darkOpacity2=0.1;flipH=1;size=30;" vertex="1" parent="1">
          <mxGeometry x="440" y="205" width="70" height="80" as="geometry" />
        </mxCell>
        <mxCell id="7FUl8SxeNgQ8QP_qilQW-15" value="" style="shape=cube;whiteSpace=wrap;html=1;boundedLbl=1;backgroundOutline=1;darkOpacity=0.05;darkOpacity2=0.1;flipH=1;size=30;" vertex="1" parent="1">
          <mxGeometry x="490" y="205" width="70" height="80" as="geometry" />
        </mxCell>
        <mxCell id="7FUl8SxeNgQ8QP_qilQW-16" value="" style="shape=cube;whiteSpace=wrap;html=1;boundedLbl=1;backgroundOutline=1;darkOpacity=0.05;darkOpacity2=0.1;flipH=1;flipV=0;fillColor=light-dark(#E51400,#CC0000);fontColor=#ffffff;strokeColor=#B20000;" vertex="1" parent="1">
          <mxGeometry x="540" y="219.75" width="50" height="50.5" as="geometry" />
        </mxCell>
        <mxCell id="7FUl8SxeNgQ8QP_qilQW-17" value="" style="shape=cube;whiteSpace=wrap;html=1;boundedLbl=1;backgroundOutline=1;darkOpacity=0.05;darkOpacity2=0.1;flipH=1;flipV=0;" vertex="1" parent="1">
          <mxGeometry x="580" y="219.75" width="50" height="50.5" as="geometry" />
        </mxCell>
        <mxCell id="7FUl8SxeNgQ8QP_qilQW-18" value="" style="shape=cube;whiteSpace=wrap;html=1;boundedLbl=1;backgroundOutline=1;darkOpacity=0.05;darkOpacity2=0.1;flipH=1;flipV=0;" vertex="1" parent="1">
          <mxGeometry x="620" y="219.75" width="50" height="50.5" as="geometry" />
        </mxCell>
        <mxCell id="7FUl8SxeNgQ8QP_qilQW-19" value="" style="shape=cube;whiteSpace=wrap;html=1;boundedLbl=1;backgroundOutline=1;darkOpacity=0.05;darkOpacity2=0.1;flipH=1;flipV=0;" vertex="1" parent="1">
          <mxGeometry x="660" y="219.75" width="50" height="50.5" as="geometry" />
        </mxCell>
        <mxCell id="7FUl8SxeNgQ8QP_qilQW-20" value="" style="shape=cube;whiteSpace=wrap;html=1;boundedLbl=1;backgroundOutline=1;darkOpacity=0.05;darkOpacity2=0.1;flipH=1;size=10;fillColor=light-dark(#E51400,#CC0000);fontColor=#ffffff;strokeColor=#B20000;" vertex="1" parent="1">
          <mxGeometry x="710" y="230" width="90" height="30" as="geometry" />
        </mxCell>
        <mxCell id="7FUl8SxeNgQ8QP_qilQW-21" value="" style="shape=cube;whiteSpace=wrap;html=1;boundedLbl=1;backgroundOutline=1;darkOpacity=0.05;darkOpacity2=0.1;flipH=1;size=5;fillColor=#dae8fc;gradientColor=#7ea6e0;strokeColor=#6c8ebf;" vertex="1" parent="1">
          <mxGeometry x="800" y="237.5" width="100" height="15" as="geometry" />
        </mxCell>
        <mxCell id="7FUl8SxeNgQ8QP_qilQW-22" value="" style="shape=cube;whiteSpace=wrap;html=1;boundedLbl=1;backgroundOutline=1;darkOpacity=0.05;darkOpacity2=0.1;flipH=1;size=5;fillColor=#dae8fc;gradientColor=#7ea6e0;strokeColor=#6c8ebf;" vertex="1" parent="1">
          <mxGeometry x="900" y="237.5" width="100" height="15" as="geometry" />
        </mxCell>
        <mxCell id="7FUl8SxeNgQ8QP_qilQW-23" value="" style="shape=cube;whiteSpace=wrap;html=1;boundedLbl=1;backgroundOutline=1;darkOpacity=0.05;darkOpacity2=0.1;flipH=1;size=5;fillColor=#dae8fc;gradientColor=#7ea6e0;strokeColor=#6c8ebf;" vertex="1" parent="1">
          <mxGeometry x="1000" y="237.5" width="50" height="15" as="geometry" />
        </mxCell>
        <mxCell id="7FUl8SxeNgQ8QP_qilQW-25" value="" style="shape=cube;whiteSpace=wrap;html=1;boundedLbl=1;backgroundOutline=1;darkOpacity=0.05;darkOpacity2=0.1;flipH=1;size=5;fillColor=light-dark(#FFCD28,#FFFF33);gradientColor=#ffa500;strokeColor=#d79b00;" vertex="1" parent="1">
          <mxGeometry x="1050" y="237.5" width="50" height="15" as="geometry" />
        </mxCell>
        <mxCell id="7FUl8SxeNgQ8QP_qilQW-26" value="224 X 224 X 64" style="text;html=1;align=center;verticalAlign=middle;resizable=0;points=[];autosize=1;strokeColor=none;fillColor=none;" vertex="1" parent="1">
          <mxGeometry x="180" y="-10" width="110" height="30" as="geometry" />
        </mxCell>
        <mxCell id="7FUl8SxeNgQ8QP_qilQW-27" value="112 X 112 X 128" style="text;html=1;align=center;verticalAlign=middle;resizable=0;points=[];autosize=1;strokeColor=none;fillColor=none;" vertex="1" parent="1">
          <mxGeometry x="210" y="90" width="110" height="30" as="geometry" />
        </mxCell>
        <mxCell id="7FUl8SxeNgQ8QP_qilQW-28" value="56 X 56 X 256" style="text;html=1;align=center;verticalAlign=middle;resizable=0;points=[];autosize=1;strokeColor=none;fillColor=none;" vertex="1" parent="1">
          <mxGeometry x="295" y="130" width="100" height="30" as="geometry" />
        </mxCell>
        <mxCell id="7FUl8SxeNgQ8QP_qilQW-29" value="28 x 28 x 512" style="text;html=1;align=center;verticalAlign=middle;resizable=0;points=[];autosize=1;strokeColor=none;fillColor=none;" vertex="1" parent="1">
          <mxGeometry x="410" y="170" width="100" height="30" as="geometry" />
        </mxCell>
        <mxCell id="7FUl8SxeNgQ8QP_qilQW-31" value="14 x 14 x 512" style="text;html=1;align=center;verticalAlign=middle;resizable=0;points=[];autosize=1;strokeColor=none;fillColor=none;rotation=0;" vertex="1" parent="1">
          <mxGeometry x="590" y="189.75" width="100" height="30" as="geometry" />
        </mxCell>
        <mxCell id="7FUl8SxeNgQ8QP_qilQW-32" value="7 x 7 x 512" style="text;html=1;align=center;verticalAlign=middle;resizable=0;points=[];autosize=1;strokeColor=none;fillColor=none;" vertex="1" parent="1">
          <mxGeometry x="715" y="205" width="80" height="30" as="geometry" />
        </mxCell>
        <mxCell id="7FUl8SxeNgQ8QP_qilQW-33" value="1 x 1 x 4096" style="text;html=1;align=center;verticalAlign=middle;resizable=0;points=[];autosize=1;strokeColor=none;fillColor=none;" vertex="1" parent="1">
          <mxGeometry x="860" y="205" width="90" height="30" as="geometry" />
        </mxCell>
        <mxCell id="7FUl8SxeNgQ8QP_qilQW-34" value="1 x 1 x 1000" style="text;html=1;align=center;verticalAlign=middle;resizable=0;points=[];autosize=1;strokeColor=none;fillColor=none;" vertex="1" parent="1">
          <mxGeometry x="1000" y="205" width="90" height="30" as="geometry" />
        </mxCell>
        <mxCell id="7FUl8SxeNgQ8QP_qilQW-35" value="" style="shape=cube;whiteSpace=wrap;html=1;boundedLbl=1;backgroundOutline=1;darkOpacity=0.05;darkOpacity2=0.1;flipH=1;" vertex="1" parent="1">
          <mxGeometry x="260" y="440" width="50" height="70" as="geometry" />
        </mxCell>
        <mxCell id="7FUl8SxeNgQ8QP_qilQW-36" value="Convolution + RELU" style="text;html=1;align=center;verticalAlign=middle;resizable=0;points=[];autosize=1;strokeColor=none;fillColor=none;" vertex="1" parent="1">
          <mxGeometry x="330" y="458" width="130" height="30" as="geometry" />
        </mxCell>
        <mxCell id="7FUl8SxeNgQ8QP_qilQW-37" value="" style="shape=cube;whiteSpace=wrap;html=1;boundedLbl=1;backgroundOutline=1;darkOpacity=0.05;darkOpacity2=0.1;flipH=1;fillColor=light-dark(#E51400,#CC0000);fontColor=#ffffff;strokeColor=#B20000;" vertex="1" parent="1">
          <mxGeometry x="260" y="520" width="50" height="70" as="geometry" />
        </mxCell>
        <mxCell id="7FUl8SxeNgQ8QP_qilQW-38" value="max pooling" style="text;html=1;align=center;verticalAlign=middle;resizable=0;points=[];autosize=1;strokeColor=none;fillColor=none;" vertex="1" parent="1">
          <mxGeometry x="330" y="530" width="90" height="30" as="geometry" />
        </mxCell>
        <mxCell id="7FUl8SxeNgQ8QP_qilQW-39" value="" style="shape=cube;whiteSpace=wrap;html=1;boundedLbl=1;backgroundOutline=1;darkOpacity=0.05;darkOpacity2=0.1;flipH=1;fillColor=light-dark(#7EA6E0,#1D293B);strokeColor=#0e8088;" vertex="1" parent="1">
          <mxGeometry x="260" y="600" width="50" height="70" as="geometry" />
        </mxCell>
        <mxCell id="7FUl8SxeNgQ8QP_qilQW-40" value="full connected + RELU" style="text;html=1;align=center;verticalAlign=middle;resizable=0;points=[];autosize=1;strokeColor=none;fillColor=none;" vertex="1" parent="1">
          <mxGeometry x="325" y="620" width="140" height="30" as="geometry" />
        </mxCell>
        <mxCell id="7FUl8SxeNgQ8QP_qilQW-41" value="" style="shape=cube;whiteSpace=wrap;html=1;boundedLbl=1;backgroundOutline=1;darkOpacity=0.05;darkOpacity2=0.1;flipH=1;fillColor=light-dark(#FFCD28,#FFFF33);strokeColor=#0e8088;fillStyle=auto;gradientColor=light-dark(#FFA500,#A05300);" vertex="1" parent="1">
          <mxGeometry x="260" y="680" width="50" height="70" as="geometry" />
        </mxCell>
        <mxCell id="7FUl8SxeNgQ8QP_qilQW-42" value="Softmax" style="text;html=1;align=center;verticalAlign=middle;resizable=0;points=[];autosize=1;strokeColor=none;fillColor=none;" vertex="1" parent="1">
          <mxGeometry x="365" y="698" width="70" height="30" as="geometry" />
        </mxCell>
      </root>
    </mxGraphModel>
  </diagram>
</mxfile>
